<svg width="18" height="12" viewBox="0 0 18 12" fill="none" xmlns="http://www.w3.org/2000/svg">
<g id="image 10_layerstyle">
<g id="Group">
<path id="Vector" d="M10.3085 6.55687C10.6179 6.5378 11.0988 6.51449 11.3785 6.50389C11.6582 6.4933 12.3744 6.48906 12.9677 6.49542C13.561 6.49966 14.2497 6.51237 14.4933 6.52508C14.737 6.5378 15.2095 6.56534 15.5422 6.59077C15.8749 6.61408 16.3792 6.65646 16.6652 6.68612C16.9513 6.71367 17.3602 6.76028 17.5763 6.78571C17.7925 6.81325 17.9789 6.8408 17.9895 6.84716C18.0001 6.85563 18.0065 6.89589 17.9895 7.01667L17.8836 7.00396C17.8264 6.9976 17.5763 6.96793 17.3327 6.93827C17.089 6.90861 16.6292 6.86199 16.3156 6.83232C16.002 6.80478 15.5147 6.76664 15.235 6.74757C14.9553 6.73062 14.4976 6.70731 14.2179 6.6946C13.9382 6.684 13.2474 6.67341 12.6817 6.67341C12.1159 6.67341 11.4252 6.684 11.1455 6.6946C10.8658 6.70519 10.4738 6.72426 10.2767 6.73697C10.0775 6.74969 9.68341 6.77935 9.39736 6.80266C9.11131 6.82597 8.65362 6.86835 8.38028 6.89801C8.10695 6.92556 7.63443 6.98277 7.33142 7.02515C7.02842 7.0654 6.49022 7.14592 6.13424 7.20525C5.77826 7.26246 5.26761 7.35358 5.00062 7.40655C4.73364 7.45952 4.2802 7.55275 3.99414 7.61632C3.70809 7.67989 3.261 7.78371 2.99826 7.8494C2.73551 7.91509 2.31173 8.02527 2.05534 8.09519C1.79895 8.16512 1.34127 8.29861 1.03827 8.38972C0.735261 8.48295 0.38776 8.59102 0.264864 8.63128C0.141967 8.67366 0.0339025 8.7012 0.0254269 8.69061C0.0169513 8.68213 0.00635673 8.64399 0 8.52957L0.254269 8.44905C0.394117 8.40456 0.714072 8.30497 0.964104 8.22869C1.21413 8.15241 1.62097 8.03375 1.86464 7.96594C2.10831 7.89814 2.57659 7.77524 2.9029 7.6926C3.22922 7.61208 3.73352 7.49131 4.02593 7.42774C4.31622 7.36417 4.7845 7.2667 5.06419 7.21373C5.34389 7.16076 5.79733 7.08024 6.07067 7.03362C6.34401 6.98912 6.80593 6.91708 7.09834 6.87682C7.38864 6.83656 7.88446 6.773 8.20018 6.73909C8.51589 6.70307 8.99265 6.65646 9.25963 6.63315C9.52661 6.60984 9.99913 6.57594 10.3085 6.55687Z" fill="white"/>
<path id="Vector_2" fill-rule="evenodd" clip-rule="evenodd" d="M10.2238 9.45097C10.2534 9.45097 10.3382 9.45945 10.4145 9.47216C10.4908 9.48487 10.6094 9.52089 10.6793 9.55479C10.7493 9.58869 10.8488 9.65225 10.9018 9.69886C10.9548 9.74335 11.0268 9.8281 11.065 9.88531C11.1031 9.94251 11.1476 10.0315 11.1667 10.0845C11.1858 10.1374 11.2091 10.237 11.2197 10.3069C11.2281 10.3768 11.226 10.4997 11.2154 10.5824C11.2048 10.6713 11.173 10.7836 11.1349 10.862C11.0989 10.9362 11.0205 11.0485 10.959 11.1141C10.8997 11.1798 10.8065 11.2582 10.7535 11.2879C10.7005 11.3175 10.6031 11.3599 10.5352 11.3811C10.4653 11.4044 10.3467 11.4192 10.2513 11.4192C10.1475 11.4192 10.0352 11.4044 9.94831 11.379C9.87203 11.3557 9.75337 11.2985 9.68345 11.254C9.61352 11.2074 9.52241 11.1269 9.48215 11.076C9.44189 11.0273 9.38044 10.9235 9.34442 10.8472C9.28509 10.7158 9.28086 10.6946 9.28086 10.4446C9.28086 10.1883 9.28297 10.1756 9.35078 10.0315C9.39104 9.94887 9.45249 9.84505 9.49063 9.79844C9.52877 9.75183 9.61141 9.67767 9.67497 9.6353C9.73854 9.59293 9.83177 9.54208 9.88474 9.52301C9.93772 9.50394 10.0225 9.48064 10.0754 9.47004C10.1284 9.46157 10.1941 9.45309 10.2238 9.45097ZM9.94831 9.82174C9.90805 9.84081 9.83389 9.90225 9.78304 9.95522C9.73218 10.0103 9.67285 10.1014 9.64955 10.1629C9.62412 10.2349 9.60929 10.3302 9.60929 10.4277C9.60929 10.5188 9.62412 10.629 9.64531 10.6968C9.66862 10.7709 9.71947 10.8514 9.7788 10.9171C9.83177 10.9743 9.91229 11.0421 9.95891 11.0675C10.0288 11.1036 10.0818 11.112 10.245 11.112C10.4081 11.112 10.4611 11.1036 10.531 11.0675C10.5776 11.0421 10.6624 10.9701 10.7175 10.9086C10.7726 10.8451 10.8319 10.7518 10.851 10.6989C10.8679 10.6459 10.8806 10.5294 10.8806 10.4383C10.8806 10.3218 10.8679 10.2412 10.834 10.1523C10.8044 10.0781 10.7535 9.9976 10.6963 9.94039C10.6454 9.89166 10.5649 9.83234 10.5162 9.81115C10.4653 9.78785 10.3721 9.76454 10.3085 9.7603C10.245 9.75395 10.1538 9.75606 10.1072 9.76454C10.0606 9.77513 9.98857 9.80056 9.94831 9.82174ZM12.5016 9.46369C12.5821 9.47004 12.7071 9.49335 12.7771 9.51453C12.847 9.53572 12.9211 9.56538 12.9423 9.58021C12.9741 9.60564 12.9762 9.62047 12.9529 9.74123C12.9317 9.84505 12.919 9.87047 12.8936 9.85988C12.8766 9.85352 12.8088 9.82598 12.7453 9.80268C12.6584 9.76878 12.58 9.75818 12.438 9.75607C12.2749 9.75607 12.2367 9.76242 12.1795 9.80268C12.1287 9.83869 12.1054 9.87259 12.0969 9.9298C12.0884 9.97429 12.0905 10.0336 12.1011 10.0633C12.1117 10.0908 12.1541 10.1374 12.1944 10.1629C12.2346 10.1904 12.33 10.2328 12.4062 10.2582C12.4825 10.2815 12.6012 10.3281 12.6711 10.3578C12.741 10.3896 12.8449 10.4574 12.9 10.5082C12.972 10.576 13.0123 10.6353 13.0356 10.7095C13.0568 10.7773 13.0652 10.8535 13.0589 10.9213C13.0525 10.9785 13.0271 11.0654 13.0038 11.112C12.9805 11.1586 12.9381 11.2158 12.9105 11.2413C12.8851 11.2646 12.8385 11.2985 12.8088 11.3175C12.7792 11.3345 12.7092 11.3642 12.6499 11.3832C12.5821 11.4065 12.4783 11.4192 12.3639 11.4192C12.2643 11.4192 12.1265 11.4044 12.0566 11.3896C11.9867 11.3726 11.885 11.3387 11.8278 11.3154C11.7451 11.2773 11.7303 11.2625 11.7367 11.2222C11.743 11.1968 11.7515 11.1311 11.7706 10.9743L11.8829 11.0273C11.9422 11.0548 12.0651 11.0951 12.152 11.1141C12.2494 11.1353 12.3533 11.1438 12.4232 11.1353C12.4825 11.129 12.5609 11.1078 12.5969 11.0908C12.633 11.0739 12.6753 11.0379 12.6923 11.0103C12.7092 10.9849 12.7241 10.9256 12.7241 10.879C12.7241 10.8324 12.7092 10.773 12.6923 10.7455C12.6753 10.7201 12.6245 10.6819 12.5821 10.6586C12.5376 10.6374 12.4338 10.5993 12.3533 10.5718C12.2728 10.5442 12.1605 10.5018 12.1054 10.4743C12.0482 10.4468 11.9655 10.3874 11.9189 10.3429C11.8659 10.2963 11.8193 10.2264 11.8002 10.1692C11.7833 10.1162 11.7706 10.0357 11.7706 9.98912C11.7706 9.94251 11.7833 9.86836 11.7981 9.82174C11.8108 9.77725 11.8511 9.70734 11.8871 9.66496C11.9231 9.62471 11.9888 9.57174 12.0354 9.54843C12.0821 9.52301 12.1732 9.49123 12.2367 9.47852C12.3067 9.46157 12.4126 9.45521 12.5016 9.46369ZM8.21081 9.47852C8.3337 9.48275 8.46508 9.50394 8.54983 9.53148C8.62611 9.55479 8.70663 9.58657 8.72782 9.6014C8.76384 9.62683 8.76596 9.63954 8.74265 9.75607C8.72994 9.82598 8.71511 9.88531 8.71299 9.88954C8.71087 9.89378 8.63671 9.87047 8.54983 9.83869C8.41634 9.78996 8.35701 9.77937 8.17902 9.77937C7.99468 9.77937 7.9523 9.78573 7.86331 9.83022C7.8061 9.85988 7.7171 9.92768 7.66413 9.98488C7.60692 10.0463 7.5603 10.1247 7.54123 10.1862C7.52428 10.2412 7.51157 10.3599 7.51157 10.4489C7.51157 10.5612 7.52428 10.6502 7.55395 10.7243C7.57937 10.7921 7.63023 10.8705 7.68532 10.9235C7.73617 10.9722 7.8061 11.0273 7.84 11.0442C7.8739 11.0612 7.96501 11.0887 8.04129 11.1036C8.15783 11.1247 8.20657 11.1247 8.35913 11.0951C8.45872 11.076 8.58373 11.0421 8.64094 11.0188C8.69604 10.9934 8.74477 10.9807 8.74901 10.9891C8.75325 10.9997 8.76172 11.0633 8.78503 11.2603L8.67273 11.3069C8.61128 11.3324 8.52229 11.3642 8.47567 11.3747C8.42905 11.3875 8.32523 11.4023 8.24259 11.4108C8.14088 11.4192 8.04341 11.4129 7.93535 11.3896C7.84847 11.3705 7.72981 11.3324 7.67049 11.3048C7.61327 11.2752 7.51369 11.2074 7.45012 11.1502C7.37384 11.0802 7.31451 11.0019 7.26577 10.9002C7.21916 10.8027 7.18737 10.701 7.17466 10.6035C7.16618 10.5209 7.16407 10.3938 7.17466 10.3175C7.18314 10.2412 7.20644 10.1374 7.22763 10.0845C7.2467 10.0315 7.29756 9.93827 7.33994 9.87471C7.38231 9.81115 7.45859 9.7264 7.51157 9.68827C7.56454 9.64801 7.64506 9.59716 7.69167 9.57598C7.73829 9.55267 7.8294 9.52089 7.89297 9.50182C7.97349 9.48064 8.07096 9.47216 8.21081 9.47852ZM13.6988 9.49123H14.0166L14.0209 10.1311C14.0272 10.6968 14.0314 10.7836 14.0654 10.8578C14.0865 10.9044 14.1247 10.9658 14.1501 10.9934C14.1755 11.0209 14.2349 11.0612 14.2815 11.0824C14.3387 11.1078 14.415 11.1226 14.5146 11.1226C14.612 11.1226 14.6925 11.1078 14.7476 11.0845C14.7943 11.0633 14.8578 11.0124 14.8875 10.9722C14.9172 10.9319 14.9553 10.8663 14.9722 10.826C14.9913 10.7709 14.9998 10.5887 15.004 9.49123H15.324L15.3197 10.8578L15.2625 10.9849C15.2286 11.0548 15.1629 11.1523 15.1142 11.201C15.0634 11.2497 14.9659 11.3154 14.896 11.3493C14.7921 11.3959 14.7307 11.4086 14.5569 11.415C14.3811 11.4235 14.3217 11.4171 14.2073 11.3811C14.131 11.3557 14.0314 11.3069 13.9848 11.2752C13.9382 11.2413 13.8704 11.1671 13.8323 11.1099C13.7962 11.0527 13.7518 10.9531 13.7327 10.8896C13.7051 10.7942 13.6988 10.6565 13.6988 10.1311V9.49123ZM8.79351 0.0715316C8.8041 0.075769 8.84012 0.18806 8.87403 0.319418C8.90581 0.452896 8.93759 0.567305 8.94395 0.573661C8.95031 0.577899 9.06049 0.60756 9.18974 0.637222C9.319 0.664765 9.42918 0.698664 9.43342 0.711376C9.43766 0.72197 9.32959 0.755869 8.95031 0.838498L8.91005 0.976212C8.88886 1.05037 8.85919 1.16054 8.84224 1.21774C8.82741 1.27495 8.8041 1.32368 8.79351 1.32791C8.78079 1.33215 8.73841 1.22622 8.62399 0.846972L8.51805 0.817311C8.45872 0.800361 8.36549 0.774937 8.30828 0.760106C8.25107 0.745275 8.20021 0.719851 8.19597 0.70502C8.19174 0.688071 8.25742 0.664765 8.39515 0.632985C8.50957 0.609679 8.61128 0.582136 8.62399 0.571543C8.63459 0.563068 8.67273 0.444421 8.70875 0.310944C8.74265 0.175347 8.78079 0.0672943 8.79351 0.0715316ZM10.923 1.23046C10.9357 1.23046 10.9527 1.26435 10.9654 1.30885C10.976 1.35334 11.0014 1.46563 11.0629 1.72835L11.2981 1.7792C11.4273 1.80886 11.5396 1.84064 11.5502 1.84911C11.5608 1.85759 11.565 1.8703 11.5587 1.87666C11.5523 1.88301 11.4421 1.91055 11.315 1.94022C11.1858 1.96776 11.0798 1.9953 11.0798 1.99742C11.0777 1.99954 11.0459 2.10759 11.0099 2.23683C10.9739 2.36395 10.9378 2.47413 10.9336 2.47836C10.9272 2.48472 10.9188 2.48472 10.9124 2.47836C10.9061 2.47413 10.8722 2.36819 10.8361 2.24531C10.8001 2.12454 10.7641 2.01649 10.7556 2.00801C10.7493 1.99954 10.6454 1.96564 10.5247 1.93386C10.4039 1.90208 10.3064 1.86606 10.3064 1.85335C10.3085 1.84276 10.4124 1.80886 10.7726 1.72623L10.8065 1.58851C10.8255 1.51436 10.8552 1.40207 10.8722 1.34063C10.8891 1.27919 10.9124 1.22834 10.923 1.22834V1.23046ZM7.02634 1.84488C7.03693 1.84488 7.05388 1.87666 7.06236 1.91479C7.07295 1.95293 7.09838 2.06098 7.11957 2.15209C7.14076 2.24531 7.16618 2.33217 7.17678 2.34277C7.18737 2.35548 7.3018 2.38938 7.43105 2.41692C7.5603 2.44658 7.67049 2.48048 7.67472 2.49108C7.67896 2.50379 7.56878 2.53769 7.18526 2.6182L7.15559 2.72413C7.13864 2.78346 7.10897 2.89575 7.08567 2.97414C7.06448 3.05253 7.03905 3.11821 7.02846 3.11821C7.01998 3.11821 6.97972 3.00804 6.8653 2.62879L6.74876 2.59701C6.68519 2.57794 6.58137 2.5504 6.51992 2.53345C6.46059 2.5165 6.40973 2.49319 6.40973 2.48048C6.40973 2.46989 6.47966 2.44658 6.5623 2.42963C6.64705 2.41057 6.74876 2.38938 6.78902 2.3809C6.84199 2.36819 6.86954 2.34912 6.88649 2.30039C6.90132 2.26649 6.9331 2.14997 6.95853 2.04191C6.98608 1.93386 7.01574 1.84488 7.02634 1.84488ZM9.54572 5.02503C9.55843 5.02503 9.59234 5.14156 9.67709 5.54411L9.9017 5.59284C10.0267 5.61826 10.1433 5.65004 10.1602 5.66064C10.1772 5.66911 10.1877 5.68394 10.1814 5.6903C10.175 5.69454 10.0649 5.7242 9.93772 5.75386C9.80846 5.7814 9.69828 5.81318 9.69192 5.82378C9.68557 5.83225 9.65166 5.94242 9.61776 6.06742C9.58386 6.19455 9.54784 6.29412 9.53724 6.28989C9.52665 6.28777 9.50546 6.24751 9.49063 6.2009C9.47579 6.15217 9.44401 6.04836 9.37833 5.81954L9.1516 5.75598C9.02659 5.71996 8.92064 5.68182 8.9164 5.67123C8.91217 5.65852 9.01599 5.62462 9.38468 5.54411L9.45249 5.28987C9.49063 5.14791 9.52241 5.03139 9.52241 5.02927C9.52453 5.02715 9.53512 5.02503 9.54572 5.02503ZM0.773438 9.49547H1.11246L1.75449 10.6713L1.84561 10.5018C1.89646 10.4086 2.04054 10.1438 2.3944 9.49335L2.73343 9.50606L2.74402 11.3811H2.42619L2.41559 10.0145L1.88586 10.9785L1.61253 10.968L1.08068 10.004L1.07008 11.3811H0.773438L0.773438 9.49547ZM3.44326 9.49547H4.65104V9.7709H3.7611V10.2794L4.55569 10.29V10.5654L3.7611 10.576V11.1057H4.69342V11.3811H3.44326V9.49547ZM5.33333 9.49123L5.71685 9.4997C5.92874 9.50606 6.13639 9.52089 6.17665 9.5336C6.21691 9.54631 6.29743 9.58657 6.35676 9.62471C6.43092 9.67556 6.47754 9.72852 6.52204 9.81327C6.57077 9.90649 6.58137 9.95734 6.58349 10.0781C6.58349 10.1883 6.57289 10.2476 6.53687 10.3218C6.51144 10.3726 6.46483 10.4425 6.43304 10.4764C6.40338 10.5103 6.35252 10.5506 6.26141 10.5972L6.46906 10.9086C6.58348 11.0802 6.69791 11.2561 6.76995 11.3811H6.38855L5.96476 10.6819H5.64693V11.3811H5.32909L5.33333 9.49123ZM5.64693 10.4044C5.97112 10.4044 6.03893 10.3938 6.10673 10.362C6.16182 10.3366 6.21056 10.2942 6.22963 10.2561C6.24658 10.2222 6.26141 10.1417 6.26141 10.076C6.26141 9.97853 6.25082 9.94887 6.20208 9.89166C6.16182 9.84717 6.10461 9.81327 6.04316 9.79632C5.98807 9.78149 5.87577 9.76878 5.79525 9.76878H5.64693V10.4044ZM16.0296 9.49335H16.3474V11.1036H17.2374V11.379H16.0296V9.49335Z" fill="white"/>
</g>
</g>
</svg>
